<?xml version="1.0" standalone="no"?>
<!DOCTYPE svg PUBLIC "-//W3C//DTD SVG 20010904//EN"
 "http://www.w3.org/TR/2001/REC-SVG-20010904/DTD/svg10.dtd">
<svg version="1.0" xmlns="http://www.w3.org/2000/svg"
 width="1452.000000pt" height="518.000000pt" viewBox="0 0 1452.000000 518.000000"
 preserveAspectRatio="xMidYMid meet">
<metadata>
Created by potrace 1.15, written by Peter Selinger 2001-2017
</metadata>
<g transform="translate(0.000000,518.000000) scale(0.100000,-0.100000)"
fill="#000000" stroke="none">
<path d="M2667 5063 c-4 -3 -29 -8 -55 -9 -133 -7 -810 -166 -1056 -248 -478
-159 -934 -401 -1196 -631 -113 -101 -174 -178 -235 -300 -84 -169 -106 -269
-112 -495 l-5 -185 98 95 c123 119 171 158 309 252 310 211 644 372 1210 582
432 161 619 221 931 297 115 28 211 53 214 56 3 3 -8 3 -23 -1 -22 -5 -27 -4
-21 6 13 21 13 38 1 38 -7 0 -5 5 3 10 10 6 11 10 3 10 -8 0 -13 15 -13 40 0
22 -4 40 -10 40 -6 0 -10 26 -10 58 0 31 -7 119 -17 195 -13 111 -14 140 -4
146 9 6 8 10 -6 16 -16 6 -14 9 12 21 24 11 26 13 9 14 -11 0 -24 -3 -27 -7z"/>
<path d="M5988 3495 c-24 -21 -52 -31 -168 -64 -14 -3 -26 -14 -28 -24 -3 -14
4 -17 40 -17 24 0 54 -7 66 -16 21 -14 22 -22 22 -144 l0 -129 -62 27 c-54 23
-77 27 -163 27 -89 0 -105 -3 -150 -27 -232 -123 -284 -487 -97 -671 62 -61
128 -89 206 -90 84 0 135 16 197 63 29 22 55 38 57 35 2 -2 5 -21 7 -42 2 -21
4 -41 4 -45 1 -12 40 -9 64 3 11 7 55 14 96 18 58 5 76 10 76 21 0 9 -15 18
-40 23 -76 17 -70 -34 -70 551 0 577 3 554 -57 501z m-227 -396 c105 -35 149
-116 157 -283 10 -241 -40 -351 -167 -364 -72 -7 -128 18 -186 79 -123 131
-141 338 -43 485 56 83 145 114 239 83z"/>
<path d="M8315 3510 c-11 -18 -99 -57 -145 -65 -59 -10 -81 -22 -74 -40 4 -11
19 -15 50 -13 78 3 74 29 74 -463 0 -265 -4 -448 -10 -464 -5 -14 -23 -34 -40
-43 -31 -17 -39 -37 -18 -44 6 -2 47 1 90 7 46 7 98 8 126 4 79 -13 122 -11
122 6 0 9 -17 19 -45 26 -62 16 -92 53 -101 126 -7 62 2 795 12 904 7 65 6 69
-14 69 -11 0 -24 -5 -27 -10z"/>
<path d="M10395 3511 c-100 -24 -172 -102 -261 -285 -21 -43 -51 -88 -66 -99
-45 -33 -33 -67 23 -67 18 0 19 -11 20 -282 1 -156 1 -292 0 -303 -1 -11 -15
-32 -31 -46 -17 -14 -30 -30 -30 -35 0 -6 62 -10 155 -10 131 -1 155 1 153 13
-2 8 -21 21 -43 29 -76 26 -75 20 -75 344 l0 288 91 4 c85 3 92 5 115 31 13
15 24 37 24 49 0 17 -4 19 -27 13 -35 -9 -180 -18 -197 -12 -18 7 -3 145 22
194 28 55 85 103 122 103 18 0 42 -11 63 -30 19 -16 41 -30 49 -30 30 0 74 74
62 104 -12 30 -98 44 -169 27z"/>
<path d="M10896 3504 c-77 -24 -141 -96 -215 -241 -36 -71 -72 -128 -86 -137
-25 -16 -35 -55 -15 -57 6 -1 15 -3 20 -4 6 -1 17 -3 25 -4 13 -1 15 -41 15
-295 0 -162 -3 -302 -6 -311 -4 -8 -19 -22 -35 -31 -16 -8 -29 -20 -29 -27 0
-10 36 -13 160 -14 138 0 160 2 158 15 -2 8 -21 20 -42 26 -22 6 -48 23 -60
39 -20 27 -21 42 -24 313 -2 156 0 284 5 284 4 0 48 2 96 3 80 2 91 4 108 26
10 13 19 34 19 48 0 23 -3 25 -27 18 -16 -4 -68 -10 -117 -12 l-89 -4 6 73
c14 171 138 285 215 198 35 -40 67 -39 92 3 55 88 -33 134 -174 91z"/>
<path d="M9393 3498 c-6 -7 -94 -220 -196 -474 -102 -253 -196 -483 -210 -511
-14 -27 -43 -64 -64 -81 -28 -23 -35 -34 -27 -42 12 -12 244 -17 263 -6 19 12
12 23 -30 41 -75 34 -76 65 -6 240 l52 130 187 3 186 2 32 -82 c18 -46 47
-123 66 -172 19 -48 34 -92 34 -97 0 -5 -16 -15 -35 -23 -35 -15 -46 -40 -22
-49 6 -2 45 0 85 5 45 6 99 6 145 0 39 -5 78 -7 85 -5 24 10 11 31 -35 55 -32
16 -57 39 -75 69 -29 46 -331 787 -376 923 -27 81 -40 97 -59 74z m55 -426
c40 -106 72 -195 72 -197 0 -3 -72 -5 -159 -5 l-159 0 81 204 c45 113 85 202
88 198 3 -4 38 -94 77 -200z"/>
<path d="M3353 3494 c-23 -10 -14 -33 15 -40 83 -18 107 -55 105 -169 -5 -440
-16 -804 -25 -828 -6 -15 -24 -35 -40 -43 -16 -8 -27 -21 -25 -27 4 -11 24
-13 112 -7 22 1 72 -1 111 -5 52 -5 73 -4 79 5 10 17 -7 30 -45 37 -49 7 -76
29 -96 76 -16 36 -19 77 -22 277 -1 129 1 288 5 353 l8 118 168 -383 c93 -211
178 -403 190 -428 25 -51 52 -63 62 -28 4 13 88 205 188 428 l182 405 3 -390
c1 -214 0 -396 -3 -403 -2 -7 -19 -18 -35 -24 -20 -7 -30 -16 -28 -27 3 -12
14 -16 48 -14 58 2 202 2 260 0 61 -3 62 22 1 40 -49 14 -79 37 -92 71 -5 12
-9 221 -9 464 -1 418 0 444 18 468 10 14 35 29 55 34 39 10 49 31 20 39 -24 7
-180 3 -187 -4 -4 -3 -42 -84 -85 -180 -190 -419 -313 -685 -319 -691 -8 -8
-334 720 -365 815 l-19 57 -83 0 c-45 0 -95 2 -111 5 -16 2 -35 2 -41 -1z"/>
<path d="M6378 3470 c-23 -14 -58 -73 -58 -99 0 -26 66 -101 90 -101 10 0 32
16 49 35 43 49 44 78 5 138 -25 38 -52 47 -86 27z"/>
<path d="M11899 3449 c-16 -17 -32 -42 -35 -54 -7 -27 14 -71 49 -104 35 -32
65 -23 100 31 32 49 30 74 -9 126 -33 42 -66 42 -105 1z"/>
<path d="M12434 3151 c-37 -28 -73 -41 -159 -58 -59 -13 -53 -37 10 -41 27 -2
55 -8 62 -14 10 -8 13 -76 13 -292 0 -154 -4 -286 -8 -291 -4 -6 -19 -18 -34
-28 -16 -10 -28 -25 -28 -34 0 -13 7 -15 53 -8 66 11 144 11 230 0 58 -7 67
-6 67 8 0 11 -15 20 -42 28 -60 16 -105 64 -113 122 -4 25 -5 117 -3 204 3
145 6 163 30 214 46 100 91 125 125 69 32 -55 72 -48 100 18 12 30 12 37 -2
58 -9 14 -31 32 -49 41 -58 27 -81 14 -186 -107 l-21 -25 6 77 c3 42 2 79 -3
82 -5 3 -27 -8 -48 -23z"/>
<path d="M4870 3157 c-153 -43 -240 -183 -240 -387 0 -178 66 -317 174 -370
130 -62 290 -33 402 75 76 72 50 103 -34 39 -64 -48 -104 -64 -169 -64 -95 0
-163 43 -209 132 -27 54 -41 141 -34 208 l5 45 233 3 c196 2 234 5 239 17 9
26 -37 149 -75 200 -69 90 -188 131 -292 102z m150 -69 c18 -13 42 -35 53 -50
25 -33 36 -126 16 -132 -8 -3 -83 -7 -166 -9 -165 -5 -159 -7 -153 48 5 49 61
124 115 153 34 19 99 14 135 -10z"/>
<path d="M6393 3139 c-28 -17 -73 -36 -100 -42 -61 -15 -66 -41 -8 -45 22 -2
45 -8 52 -14 10 -8 13 -75 13 -282 0 -293 -3 -310 -53 -334 -15 -7 -27 -20
-27 -28 0 -13 14 -15 98 -9 53 3 122 2 152 -3 62 -11 80 -7 80 17 0 10 -16 21
-48 31 -83 26 -83 30 -80 410 2 278 0 325 -12 327 -8 1 -38 -11 -67 -28z"/>
<path d="M11943 3140 c-29 -17 -75 -35 -103 -41 -39 -8 -50 -15 -50 -30 0 -16
7 -19 40 -19 70 0 72 -9 68 -307 -3 -229 -5 -262 -21 -286 -10 -16 -29 -32
-43 -37 -13 -5 -24 -16 -24 -23 0 -11 26 -14 133 -14 72 1 144 -2 158 -5 14
-3 32 -2 39 2 23 14 4 35 -43 47 -83 23 -82 18 -82 405 0 219 -4 338 -10 338
-5 0 -34 -14 -62 -30z"/>
<path d="M6947 3150 c-128 -32 -233 -148 -266 -291 -18 -75 -13 -200 9 -272
28 -89 98 -167 178 -198 78 -30 186 -30 264 0 64 25 158 103 158 132 0 28 -32
24 -61 -7 -41 -44 -114 -75 -176 -75 -154 0 -263 149 -263 359 0 193 74 301
207 302 44 0 58 -5 88 -31 22 -20 40 -48 49 -78 16 -56 37 -63 77 -25 35 33
36 60 6 105 -42 65 -174 103 -270 79z"/>
<path d="M7563 3150 c-52 -12 -118 -56 -147 -100 -42 -64 -51 -153 -17 -174
15 -9 90 24 101 45 6 10 10 42 10 72 0 66 25 103 75 113 113 21 204 -84 193
-222 -3 -30 -9 -59 -15 -65 -6 -6 -59 -23 -119 -38 -121 -30 -156 -46 -198
-88 -81 -79 -77 -234 7 -296 33 -25 89 -35 149 -26 60 10 105 31 156 75 45 38
52 41 52 18 0 -25 54 -72 91 -79 48 -9 114 14 114 40 0 17 -7 20 -39 20 -31 0
-43 6 -60 28 -20 27 -21 43 -26 303 l-5 276 -37 33 c-56 52 -199 84 -285 65z
m205 -517 l-3 -117 -43 -33 c-103 -78 -184 -56 -199 56 -14 105 90 207 215
210 l33 1 -3 -117z"/>
<path d="M11232 3141 c-94 -33 -161 -119 -162 -207 0 -62 18 -72 77 -43 l48
24 5 65 c7 81 20 105 66 120 107 35 203 -58 204 -196 0 -79 -15 -97 -95 -113
-104 -21 -186 -52 -223 -85 -117 -103 -85 -305 53 -336 40 -9 137 5 177 26 16
8 48 32 70 52 30 27 43 33 46 23 3 -8 19 -30 37 -50 30 -32 38 -35 88 -35 40
0 61 5 76 18 29 27 16 48 -25 40 -27 -5 -38 -1 -58 20 l-26 25 0 248 c0 137
-4 264 -10 282 -21 74 -104 123 -230 135 -50 5 -77 2 -118 -13z m228 -505 l0
-114 -42 -36 c-98 -84 -170 -66 -203 51 -25 90 95 209 213 212 l32 1 0 -114z"/>
<path d="M12956 3134 c-119 -43 -176 -163 -131 -272 25 -58 52 -79 187 -148
116 -59 128 -68 147 -107 30 -61 19 -109 -35 -156 -29 -26 -43 -31 -85 -31
-94 0 -144 37 -182 136 -35 89 -52 80 -51 -29 1 -51 7 -93 14 -102 22 -26 118
-55 183 -55 87 0 132 15 183 62 48 45 74 109 74 185 0 97 -49 150 -200 216
-139 61 -170 90 -170 158 0 77 72 123 157 100 56 -15 92 -46 114 -98 27 -64
44 -52 43 30 0 81 -16 101 -85 116 -66 14 -115 13 -163 -5z"/>
<path d="M1056 3071 c-4 -5 -9 -29 -12 -54 -8 -53 9 -70 28 -30 13 28 15 28
116 31 l102 3 0 -282 0 -281 -30 -26 c-52 -46 -42 -52 81 -52 83 0 110 3 107
12 -3 7 -15 15 -29 18 -46 11 -49 34 -46 335 l2 280 82 3 c90 3 120 -6 125
-40 6 -41 28 -32 28 12 0 84 13 80 -285 80 -149 0 -266 -4 -269 -9z"/>
<path d="M1673 3068 c-7 -13 7 -28 27 -28 10 0 26 -10 34 -22 14 -19 16 -64
16 -294 0 -150 -3 -280 -6 -289 -4 -9 -17 -21 -30 -26 -48 -18 -22 -28 80 -31
110 -3 136 -1 136 11 0 4 -15 14 -32 22 -49 21 -58 49 -58 182 l0 117 175 0
175 0 0 -140 0 -141 -30 -17 c-16 -9 -30 -20 -30 -24 0 -11 218 -10 225 1 3 5
-5 13 -17 16 -59 18 -58 12 -58 331 l0 294 25 16 c14 9 23 20 20 24 -6 9 -211
8 -220 -2 -4 -4 9 -13 28 -22 20 -8 40 -23 46 -34 6 -12 11 -73 11 -136 l0
-116 -175 0 -175 0 0 129 c0 124 1 130 23 148 13 10 24 22 25 27 2 12 -208 15
-215 4z"/>
<path d="M2410 3064 c0 -6 15 -15 32 -20 55 -16 58 -31 58 -329 0 -148 -4
-275 -8 -281 -4 -6 -17 -16 -29 -23 -13 -6 -23 -15 -23 -19 0 -4 94 -7 209 -7
197 0 211 1 238 21 29 22 72 108 60 121 -4 4 -24 -10 -45 -30 -49 -48 -107
-67 -203 -67 -108 0 -109 1 -109 156 l0 124 86 0 c99 0 120 -9 140 -57 9 -19
18 -32 22 -28 4 4 7 51 8 106 1 106 -9 124 -36 66 l-15 -32 -102 -3 -103 -3 0
130 c0 148 -5 141 98 141 97 0 139 -14 164 -56 11 -19 24 -34 29 -34 7 0 7
100 0 130 -1 3 -107 5 -236 5 -165 0 -235 -3 -235 -11z"/>
<path d="M8841 2054 c-152 -41 -244 -169 -245 -344 -1 -122 21 -178 99 -257
53 -53 71 -64 134 -84 122 -36 239 -14 324 61 43 38 61 66 48 75 -5 3 -31 -13
-58 -36 -62 -55 -99 -69 -175 -69 -137 0 -236 84 -274 231 -57 224 103 435
296 389 68 -16 124 -60 161 -125 17 -31 36 -54 43 -52 6 3 9 11 7 18 -2 8 -3
47 -3 87 0 52 -4 72 -13 72 -7 0 -15 -5 -17 -12 -3 -9 -22 -5 -64 14 -108 49
-172 57 -263 32z"/>
<path d="M9570 2057 c-118 -27 -209 -99 -259 -206 -22 -47 -26 -70 -26 -146 0
-77 4 -98 27 -147 34 -73 103 -142 176 -176 49 -23 70 -27 152 -27 82 0 103 4
152 27 73 34 142 103 176 176 24 50 27 70 27 157 0 88 -3 107 -27 157 -68 146
-233 223 -398 185z m163 -70 c103 -61 174 -177 184 -304 10 -115 -34 -207
-124 -260 -63 -37 -165 -39 -228 -6 -87 46 -172 173 -195 291 -23 124 38 250
145 299 49 22 163 12 218 -20z"/>
<path d="M11597 2043 c-8 -15 -65 -156 -127 -313 -84 -210 -122 -294 -147
-321 -18 -20 -30 -39 -26 -43 10 -10 161 -7 168 3 3 6 -7 16 -22 23 -40 19
-40 55 -3 149 l32 79 117 0 116 0 38 -99 c20 -54 37 -103 37 -109 0 -6 -9 -16
-20 -22 -39 -21 -19 -27 90 -27 106 0 134 8 88 26 -13 5 -33 20 -46 33 -19 21
-212 483 -251 601 -16 49 -27 54 -44 20z m42 -245 c22 -62 41 -116 41 -120 0
-5 -43 -8 -96 -8 -53 0 -94 4 -92 9 27 73 94 231 99 231 3 0 25 -51 48 -112z"/>
<path d="M10020 2046 c0 -7 13 -16 29 -19 17 -4 35 -15 41 -27 7 -14 8 -107 4
-306 l-7 -286 -26 -24 -26 -24 83 -2 c45 -1 90 -2 99 -2 33 -2 23 21 -15 32
-26 8 -43 21 -52 39 -17 35 -25 220 -15 360 l7 105 117 -263 c64 -144 121
-264 126 -266 6 -1 65 120 132 270 l123 272 0 -247 c0 -211 -2 -249 -16 -262
-8 -9 -20 -16 -25 -16 -5 0 -9 -4 -9 -10 0 -6 45 -10 115 -10 110 0 148 11 86
25 -16 3 -37 15 -47 27 -17 18 -19 44 -22 287 -2 166 1 278 7 294 6 15 22 32
36 37 14 5 25 14 25 20 0 15 -115 13 -127 -2 -5 -7 -63 -131 -129 -275 -65
-144 -122 -259 -126 -255 -6 7 -220 491 -232 525 -4 14 -18 17 -81 17 -57 0
-75 -3 -75 -14z"/>
<path d="M10873 2045 c2 -5 13 -11 25 -13 12 -2 31 -15 42 -29 19 -24 20 -40
20 -309 l0 -283 -31 -16 c-17 -9 -28 -19 -25 -23 11 -11 247 -9 243 2 -2 5
-18 14 -35 18 -54 14 -63 40 -60 174 l3 119 73 2 c90 2 153 30 187 82 48 73
45 158 -8 218 -56 63 -90 72 -275 70 -105 -1 -161 -5 -159 -12z m316 -43 c42
-31 64 -69 69 -120 8 -86 -40 -143 -135 -157 -70 -10 -73 -4 -73 149 0 92 4
136 13 145 16 17 94 7 126 -17z"/>
<path d="M11940 2046 c0 -9 15 -17 39 -21 22 -4 49 -17 62 -31 24 -25 24 -28
27 -295 3 -281 0 -305 -40 -311 -12 -2 -23 -9 -26 -15 -3 -10 22 -13 102 -13
58 0 106 4 106 8 0 5 -18 14 -40 21 -27 8 -42 19 -45 34 -3 12 -4 125 -3 252
l3 230 202 -258 c111 -142 211 -270 222 -285 17 -23 22 -25 31 -12 6 9 10 140
10 342 0 317 1 328 20 338 38 21 19 28 -75 28 -115 1 -138 -14 -53 -32 53 -12
59 -42 56 -282 l-3 -216 -203 256 c-112 141 -212 260 -222 266 -10 5 -53 10
-94 10 -59 0 -76 -3 -76 -14z"/>
<path d="M12690 2043 c0 -7 6 -13 14 -13 22 0 76 -66 169 -211 l87 -136 0
-136 c0 -110 -3 -139 -16 -151 -8 -9 -20 -16 -25 -16 -5 0 -9 -3 -9 -8 0 -4
50 -8 110 -8 61 0 110 3 110 8 0 4 -16 14 -35 22 -47 20 -55 46 -55 187 l0
119 102 161 c59 94 112 166 125 172 44 20 23 27 -77 27 -97 0 -128 -11 -73
-25 33 -8 53 -23 53 -40 0 -15 -139 -235 -148 -235 -12 1 -162 235 -162 252 0
9 10 18 22 20 12 2 23 8 25 14 3 8 -30 11 -107 11 -84 0 -110 -4 -110 -14z"/>
<path d="M14446 1720 c-233 -211 -590 -408 -1058 -584 -418 -157 -1049 -337
-1458 -416 -163 -32 -168 -33 -268 -45 l-63 -8 37 -16 c23 -11 34 -20 27 -24
-6 -4 -14 -3 -18 3 -8 13 -35 13 -35 0 0 -5 7 -10 15 -10 11 0 15 -11 15 -40
0 -22 3 -40 8 -40 4 0 7 -109 7 -243 0 -206 -2 -243 -15 -248 -8 -3 11 -6 42
-7 32 0 60 3 63 8 3 4 14 6 24 3 60 -16 765 101 1041 173 640 166 1241 469
1463 738 153 186 252 478 245 721 l-3 98 -69 -63z"/>
</g>
</svg>
