<svg width="20" height="15" viewBox="0 0 20 15" fill="none" xmlns="http://www.w3.org/2000/svg">
<path d="M18.7037 14.3372H1.2963C0.581528 14.3372 0 13.7311 0 12.9861V1.59906C0 0.85412 0.581528 0.248047 1.2963 0.248047H18.7037C19.4185 0.248047 20 0.85412 20 1.59906V12.9861C20 13.7311 19.4185 14.3372 18.7037 14.3372ZM1.2963 0.827051C0.88787 0.827051 0.555556 1.17339 0.555556 1.59906V12.9861C0.555556 13.4118 0.88787 13.7582 1.2963 13.7582H18.7037C19.1121 13.7582 19.4444 13.4118 19.4444 12.9861V1.59906C19.4444 1.17339 19.1121 0.827051 18.7037 0.827051H1.2963Z" fill="white"/>
<path d="M10 9.51123C9.93599 9.51123 9.87196 9.48822 9.82011 9.44228L0.56084 1.2396C0.443941 1.13605 0.429729 0.953327 0.529081 0.831493C0.628479 0.709659 0.803757 0.694895 0.920655 0.798393L10 8.84175L19.0794 0.798442C19.1962 0.694895 19.3716 0.709708 19.4709 0.831542C19.5703 0.953376 19.5561 1.13605 19.4391 1.23965L10.1799 9.44233C10.1281 9.48821 10.064 9.51123 10 9.51123Z" fill="white"/>
<path d="M0.740651 13.8545C0.673012 13.8545 0.605187 13.8289 0.551715 13.7771C0.439306 13.6683 0.432779 13.4851 0.537178 13.368L6.55574 6.613C6.66018 6.4959 6.83588 6.48904 6.94829 6.59785C7.06069 6.70665 7.06722 6.88981 6.96282 7.00696L0.944264 13.7619C0.889541 13.8234 0.815189 13.8545 0.740651 13.8545Z" fill="white"/>
<path d="M19.2593 13.8538C19.1848 13.8538 19.1105 13.8226 19.0558 13.7613L13.0372 7.00689C12.9328 6.88975 12.9393 6.70656 13.0517 6.59782C13.1641 6.48917 13.3399 6.49578 13.4442 6.61297L19.4628 13.3673C19.5672 13.4845 19.5607 13.6677 19.4483 13.7764C19.3949 13.8282 19.327 13.8538 19.2593 13.8538Z" fill="white"/>
</svg>
