<svg width="20" height="18" viewBox="0 0 20 18" fill="none" xmlns="http://www.w3.org/2000/svg">
<path d="M2.61905 0.242188C1.17541 0.242188 0 1.27078 0 2.53411C0 3.79744 1.17541 4.82603 2.61905 4.82603C4.06269 4.82603 5.2381 3.79744 5.2381 2.53411C5.2381 1.27078 4.06269 0.242188 2.61905 0.242188ZM2.61905 0.658901C3.80534 0.658901 4.7619 1.49599 4.7619 2.53411C4.7619 3.57223 3.80534 4.40932 2.61905 4.40932C1.43276 4.40932 0.47619 3.57223 0.47619 2.53411C0.47619 1.49599 1.43276 0.658901 2.61905 0.658901ZM15 5.65946C13.2597 5.65946 12.2128 6.41474 11.4286 7.18958V6.28453C11.4286 6.17544 11.3151 6.07618 11.1905 6.07617H7.38095C7.25629 6.07618 7.14287 6.17544 7.14286 6.28453V17.5358C7.14287 17.6449 7.25629 17.7441 7.38095 17.7441H11.4286C11.5532 17.7441 11.6667 17.6449 11.6667 17.5358V11.2851C11.6667 10.7155 11.8685 10.1806 12.1801 9.80055C12.4916 9.42046 12.8975 9.20152 13.3333 9.20152H13.8095C14.2453 9.20152 14.6513 9.42046 14.9628 9.80055C15.2743 10.1806 15.4762 10.7155 15.4762 11.2851V17.5358C15.4762 17.6449 15.5896 17.7441 15.7143 17.7441H19.7619C19.8866 17.7441 20 17.6449 20 17.5358V10.2433C20 8.88088 19.7013 7.73051 18.9063 6.91611C18.1112 6.10171 16.8373 5.65946 15 5.65946ZM0.669643 6.07617C0.5605 6.0944 0.474233 6.18731 0.47619 6.28453V17.5358C0.476203 17.6449 0.589623 17.7441 0.714286 17.7441H4.7619C4.88657 17.7441 4.99999 17.6449 5 17.5358V6.28453C4.99999 6.17544 4.88657 6.07618 4.7619 6.07617C3.39926 6.07617 2.02885 6.07617 0.669643 6.07617ZM15 6.07617C16.7511 6.07617 17.8603 6.48409 18.5491 7.18958C19.2379 7.89507 19.5238 8.93428 19.5238 10.2433V17.3274H15.9524V11.2851C15.9524 10.6311 15.7267 10.0131 15.3497 9.55312C14.9727 9.09313 14.429 8.78481 13.8095 8.78481H13.3333C12.7139 8.78481 12.1702 9.09313 11.7932 9.55312C11.4161 10.0131 11.1905 10.6311 11.1905 11.2851V13.9937C11.0191 13.9937 10.8373 13.9937 10.6696 13.9937C10.545 14.004 10.4422 14.1125 10.4539 14.2216C10.4656 14.3307 10.5896 14.4207 10.7143 14.4104H11.1905V15.6606C11.0191 15.6605 10.8373 15.6606 10.6696 15.6606C10.545 15.6708 10.4422 15.7794 10.4539 15.8885C10.4656 15.9976 10.5896 16.0875 10.7143 16.0773H11.1905V17.3274H7.61905V6.49289H10.9524V7.74302C10.9523 7.91443 11.2542 8.00713 11.3765 7.87325C12.1832 6.99305 13.1229 6.07617 15 6.07617ZM0.952381 6.49289H4.52381V13.9937C4.35243 13.9937 4.17062 13.9937 4.00298 13.9937C3.87831 14.004 3.77552 14.1125 3.7872 14.2216C3.79889 14.3307 3.92295 14.4207 4.04762 14.4104H4.52381V15.6606C4.35243 15.6605 4.17062 15.6606 4.00298 15.6606C3.87831 15.6708 3.77552 15.7794 3.7872 15.8885C3.79889 15.9976 3.92295 16.0875 4.04762 16.0773H4.52381V17.3274H0.952381V6.49289Z" fill="white"/>
</svg>
